ply
format ascii 1.0
comment VCGLIB generated
element vertex 60
property float x
property float y
property float z
element face 120
property list uchar int vertex_indices
end_header
-0 0 -14 
-0 14 -14 
8.229 14 -11.3262 
8.229 0 -11.3262 
-0 28 -14 
8.229 28 -11.3262 
-0 28 -6 
3.5267 28 -4.8541 
-0 14 -6 
3.5267 14 -4.8541 
-0 0 -6 
3.5267 0 -4.8541 
13.3148 14 -4.3262 
13.3148 0 -4.3262 
13.3148 28 -4.3262 
5.7063 28 -1.8541 
5.7063 14 -1.8541 
5.7063 0 -1.8541 
13.3148 14 4.3262 
13.3148 0 4.3262 
13.3148 28 4.3262 
5.7063 28 1.8541 
5.7063 14 1.8541 
5.7063 0 1.8541 
8.229 14 11.3262 
8.229 0 11.3262 
8.229 28 11.3262 
3.5267 28 4.8541 
3.5267 14 4.8541 
3.5267 0 4.8541 
-0 14 14 
-0 0 14 
-0 28 14 
-0 28 6 
-0 14 6 
-0 0 6 
-8.229 14 11.3262 
-8.229 0 11.3262 
-8.229 28 11.3262 
-3.5267 28 4.8541 
-3.5267 14 4.8541 
-3.5267 0 4.8541 
-13.3148 14 4.3262 
-13.3148 0 4.3262 
-13.3148 28 4.3262 
-5.7063 28 1.8541 
-5.7063 14 1.8541 
-5.7063 0 1.8541 
-13.3148 14 -4.3262 
-13.3148 0 -4.3262 
-13.3148 28 -4.3262 
-5.7063 28 -1.8541 
-5.7063 14 -1.8541 
-5.7063 0 -1.8541 
-8.229 14 -11.3262 
-8.229 0 -11.3262 
-8.229 28 -11.3262 
-3.5267 28 -4.8541 
-3.5267 14 -4.8541 
-3.5267 0 -4.8541 
3 0 1 2 
3 0 2 3 
3 1 4 5 
3 1 5 2 
3 4 6 7 
3 4 7 5 
3 6 8 9 
3 6 9 7 
3 8 10 11 
3 8 11 9 
3 10 0 3 
3 10 3 11 
3 3 2 12 
3 3 12 13 
3 2 5 14 
3 2 14 12 
3 5 7 15 
3 5 15 14 
3 7 9 16 
3 7 16 15 
3 9 11 17 
3 9 17 16 
3 11 3 13 
3 11 13 17 
3 13 12 18 
3 13 18 19 
3 12 14 20 
3 12 20 18 
3 14 15 21 
3 14 21 20 
3 15 16 22 
3 15 22 21 
3 16 17 23 
3 16 23 22 
3 17 13 19 
3 17 19 23 
3 19 18 24 
3 19 24 25 
3 18 20 26 
3 18 26 24 
3 20 21 27 
3 20 27 26 
3 21 22 28 
3 21 28 27 
3 22 23 29 
3 22 29 28 
3 23 19 25 
3 23 25 29 
3 25 24 30 
3 25 30 31 
3 24 26 32 
3 24 32 30 
3 26 27 33 
3 26 33 32 
3 27 28 34 
3 27 34 33 
3 28 29 35 
3 28 35 34 
3 29 25 31 
3 29 31 35 
3 31 30 36 
3 31 36 37 
3 30 32 38 
3 30 38 36 
3 32 33 39 
3 32 39 38 
3 33 34 40 
3 33 40 39 
3 34 35 41 
3 34 41 40 
3 35 31 37 
3 35 37 41 
3 37 36 42 
3 37 42 43 
3 36 38 44 
3 36 44 42 
3 38 39 45 
3 38 45 44 
3 39 40 46 
3 39 46 45 
3 40 41 47 
3 40 47 46 
3 41 37 43 
3 41 43 47 
3 43 42 48 
3 43 48 49 
3 42 44 50 
3 42 50 48 
3 44 45 51 
3 44 51 50 
3 45 46 52 
3 45 52 51 
3 46 47 53 
3 46 53 52 
3 47 43 49 
3 47 49 53 
3 49 48 54 
3 49 54 55 
3 48 50 56 
3 48 56 54 
3 50 51 57 
3 50 57 56 
3 51 52 58 
3 51 58 57 
3 52 53 59 
3 52 59 58 
3 53 49 55 
3 53 55 59 
3 55 54 1 
3 55 1 0 
3 54 56 4 
3 54 4 1 
3 56 57 6 
3 56 6 4 
3 57 58 8 
3 57 8 6 
3 58 59 10 
3 58 10 8 
3 59 55 0 
3 59 0 10 
