ply
format ascii 1.0
comment VCGLIB generated
element vertex 62
property float x
property float y
property float z
element face 120
property list uchar int vertex_indices
end_header
0 16 -0 
-0 13.8564 -8 
-4 13.8564 -6.9282 
-6.9282 13.8564 -4 
-8 13.8564 -0 
-6.9282 13.8564 4 
-4 13.8564 6.9282 
-0 13.8564 8 
4 13.8564 6.9282 
6.9282 13.8564 4 
8 13.8564 0 
6.9282 13.8564 -4 
4 13.8564 -6.9282 
-6.9282 8 -12 
-0 8 -13.8564 
-12 8 -6.9282 
-13.8564 8 -0 
-12 8 6.9282 
-6.9282 8 12 
-0 8 13.8564 
6.9282 8 12 
12 8 6.9282 
13.8564 8 0 
12 8 -6.9282 
6.9282 8 -12 
-8 -0 -13.8564 
-0 -0 -16 
-13.8564 -0 -8 
-16 -0 -0 
-13.8564 -0 8 
-8 -0 13.8564 
-0 -0 16 
8 -0 13.8564 
13.8564 -0 8 
16 -0 0 
13.8564 -0 -8 
8 -0 -13.8564 
-6.9282 -8 -12 
-0 -8 -13.8564 
-12 -8 -6.9282 
-13.8564 -8 -0 
-12 -8 6.9282 
-6.9282 -8 12 
-0 -8 13.8564 
6.9282 -8 12 
12 -8 6.9282 
13.8564 -8 0 
12 -8 -6.9282 
6.9282 -8 -12 
-4 -13.8564 -6.9282 
-0 -13.8564 -8 
-6.9282 -13.8564 -4 
-8 -13.8564 -0 
-6.9282 -13.8564 4 
-4 -13.8564 6.9282 
-0 -13.8564 8 
4 -13.8564 6.9282 
6.9282 -13.8564 4 
8 -13.8564 0 
6.9282 -13.8564 -4 
4 -13.8564 -6.9282 
0 -16 -0 
3 0 1 2 
3 0 2 3 
3 0 3 4 
3 0 4 5 
3 0 5 6 
3 0 6 7 
3 0 7 8 
3 0 8 9 
3 0 9 10 
3 0 10 11 
3 0 11 12 
3 0 12 1 
3 13 2 1 
3 13 1 14 
3 15 3 2 
3 15 2 13 
3 16 4 3 
3 16 3 15 
3 17 5 4 
3 17 4 16 
3 18 6 5 
3 18 5 17 
3 19 7 6 
3 19 6 18 
3 20 8 7 
3 20 7 19 
3 21 9 8 
3 21 8 20 
3 22 10 9 
3 22 9 21 
3 23 11 10 
3 23 10 22 
3 24 12 11 
3 24 11 23 
3 14 1 12 
3 14 12 24 
3 25 13 14 
3 25 14 26 
3 27 15 13 
3 27 13 25 
3 28 16 15 
3 28 15 27 
3 29 17 16 
3 29 16 28 
3 30 18 17 
3 30 17 29 
3 31 19 18 
3 31 18 30 
3 32 20 19 
3 32 19 31 
3 33 21 20 
3 33 20 32 
3 34 22 21 
3 34 21 33 
3 35 23 22 
3 35 22 34 
3 36 24 23 
3 36 23 35 
3 26 14 24 
3 26 24 36 
3 37 25 26 
3 37 26 38 
3 39 27 25 
3 39 25 37 
3 40 28 27 
3 40 27 39 
3 41 29 28 
3 41 28 40 
3 42 30 29 
3 42 29 41 
3 43 31 30 
3 43 30 42 
3 44 32 31 
3 44 31 43 
3 45 33 32 
3 45 32 44 
3 46 34 33 
3 46 33 45 
3 47 35 34 
3 47 34 46 
3 48 36 35 
3 48 35 47 
3 38 26 36 
3 38 36 48 
3 49 37 38 
3 49 38 50 
3 51 39 37 
3 51 37 49 
3 52 40 39 
3 52 39 51 
3 53 41 40 
3 53 40 52 
3 54 42 41 
3 54 41 53 
3 55 43 42 
3 55 42 54 
3 56 44 43 
3 56 43 55 
3 57 45 44 
3 57 44 56 
3 58 46 45 
3 58 45 57 
3 59 47 46 
3 59 46 58 
3 60 48 47 
3 60 47 59 
3 50 38 48 
3 50 48 60 
3 61 49 50 
3 61 51 49 
3 61 52 51 
3 61 53 52 
3 61 54 53 
3 61 55 54 
3 61 56 55 
3 61 57 56 
3 61 58 57 
3 61 59 58 
3 61 60 59 
3 61 50 60 
