ply
format ascii 1.0
comment VCGLIB generated
element vertex 386
property float x
property float y
property float z
element face 768
property list uchar int vertex_indices
end_header
-4.3158 26.5944 -8.988 
0 25.0303 -8.9535 
0 21.8897 -7.1669 
-4.655 23.5417 -7.2031 
4.3158 26.5944 -8.988 
4.655 23.5417 -7.2031 
8.8489 29.8538 -9.0499 
9.4877 27.1411 -7.2864 
13.2854 32.8523 -8.9021 
14.1457 30.7824 -7.2572 
16.2222 34.6907 -8.4519 
17.6893 33.9756 -7.1271 
13.2582 63.4814 -8.4703 
10.0309 62.9785 -9.0471 
10.5422 65.2894 -7.3242 
14.7652 65.0404 -7.1271 
6.08 61.1744 -9.6188 
6.2843 63.8825 -7.665 
2.81 58.4255 -10.0162 
2.8784 61.356 -7.9346 
0 56.8954 -10.1655 
0 59.8977 -8.0425 
-2.81 58.4255 -10.0162 
-2.8784 61.356 -7.9346 
-6.08 61.1744 -9.6188 
-6.2843 63.8825 -7.665 
-10.0309 62.9785 -9.0471 
-10.5422 65.2894 -7.3242 
-13.2582 63.4814 -8.4703 
-14.7652 65.0404 -7.1271 
-16.2223 34.6907 -8.4519 
-13.2854 32.8523 -8.9021 
-14.1457 30.7824 -7.2572 
-17.6893 33.9756 -7.1271 
-8.8489 29.8538 -9.0499 
-9.4877 27.1411 -7.2864 
4.9945 20.983 -5.0764 
0 19.2469 -5.061 
-4.9945 20.983 -5.0764 
-10.1558 24.9273 -5.1359 
-15.1181 29.199 -5.1325 
-19.0684 33.0501 -5.0621 
-16.3777 66.3747 -5.0621 
-11.4585 66.9011 -5.1548 
-6.7137 65.6893 -5.3398 
-3.0354 63.257 -5.5004 
0 61.8212 -5.5689 
3.0354 63.257 -5.5004 
6.7137 65.6893 -5.3398 
11.4585 66.9011 -5.1548 
16.3777 66.3747 -5.0621 
19.0684 33.0501 -5.0621 
15.1181 29.199 -5.1325 
10.1558 24.9273 -5.1359 
0 17.3521 -2.6437 
-5.26 19.2083 -2.6412 
5.26 19.2083 -2.6412 
10.6334 23.439 -2.6594 
15.7757 28.1112 -2.6549 
19.9551 32.3335 -2.6213 
12.1974 67.8936 -2.6601 
17.5071 67.2577 -2.6213 
7.1013 66.7006 -2.74 
3.1933 64.2106 -2.8142 
0 62.7299 -2.8473 
-3.1933 64.2106 -2.8142 
-7.1013 66.7006 -2.74 
-12.1974 67.8936 -2.6601 
-17.507 67.2577 -2.6213 
-15.7757 28.1112 -2.6549 
-19.9551 32.3335 -2.6213 
-10.6334 23.439 -2.6594 
5.4273 18.4828 -0 
0 16.531 -0 
-5.4272 18.4828 -0 
-10.8871 22.8855 -0 
-16.028 27.6971 -0 
-20.263 32.0466 -0 
-17.929 67.5816 0 
-12.4972 68.2367 0 
-7.2708 67.0138 0 
-3.2671 64.4606 0 
0 62.9426 0 
3.2671 64.4606 0 
7.2708 67.0138 0 
12.4972 68.2367 0 
17.9291 67.5816 0 
20.263 32.0466 -0 
16.028 27.6971 -0 
10.8871 22.8855 -0 
5.26 19.2083 2.6412 
0 17.3521 2.6436 
10.6334 23.439 2.6594 
15.7758 28.1112 2.6549 
19.9551 32.3335 2.6213 
12.1974 67.8936 2.6601 
17.5071 67.2577 2.6213 
7.1013 66.7006 2.74 
3.1933 64.2106 2.8142 
0 62.7299 2.8473 
-3.1933 64.2106 2.8142 
-7.1013 66.7006 2.74 
-12.1974 67.8936 2.6601 
-17.507 67.2577 2.6213 
-15.7758 28.1112 2.6549 
-19.9551 32.3335 2.6213 
-10.6334 23.439 2.6594 
-5.26 19.2083 2.6412 
4.9945 20.9829 5.0764 
0 19.2469 5.061 
-4.9945 20.9829 5.0764 
-10.1558 24.9272 5.1359 
-15.1181 29.199 5.1325 
-19.0684 33.0501 5.0621 
-16.3777 66.3747 5.0621 
-11.4585 66.9011 5.1548 
-6.7137 65.6893 5.3397 
-3.0354 63.257 5.5004 
0 61.8212 5.5689 
3.0354 63.257 5.5004 
6.7137 65.6893 5.3397 
11.4585 66.9011 5.1548 
16.3777 66.3747 5.0621 
19.0684 33.0501 5.0621 
15.1181 29.199 5.1325 
10.1558 24.9272 5.1359 
0 21.8897 7.1669 
-4.655 23.5417 7.2031 
4.655 23.5417 7.2031 
9.4877 27.1411 7.2863 
14.1457 30.7824 7.2571 
17.6893 33.9756 7.1271 
10.5422 65.2894 7.3242 
14.7652 65.0404 7.1271 
6.2843 63.8825 7.665 
2.8784 61.356 7.9345 
0 59.8977 8.0425 
-2.8784 61.356 7.9345 
-6.2843 63.8825 7.665 
-10.5422 65.2894 7.3242 
-14.7652 65.0404 7.1271 
-14.1457 30.7824 7.2571 
-17.6893 33.9756 7.1271 
-9.4877 27.1411 7.2863 
4.3158 26.5943 8.988 
0 25.0303 8.9534 
-4.3158 26.5943 8.988 
-8.8489 29.8538 9.0499 
-13.2854 32.8523 8.9021 
-16.2222 34.6907 8.4519 
-13.2582 63.4814 8.4703 
-10.0309 62.9785 9.0471 
-6.08 61.1744 9.6188 
-2.81 58.4255 10.0162 
0 56.8954 10.1654 
2.8101 58.4255 10.0162 
6.08 61.1744 9.6188 
10.0309 62.9785 9.0471 
13.2582 63.4814 8.4703 
16.2222 34.6907 8.4519 
13.2854 32.8523 8.9021 
8.8489 29.8538 9.0499 
-23.6179 36.3103 -0 
-23.2272 36.5016 -2.6601 
-23.2272 36.5016 2.6601 
-22.0353 36.9363 5.1548 
-20.0193 37.3642 7.3242 
-17.1376 37.1196 9.0374 
-13.1202 35.5193 10.0888 
-8.4182 32.8409 10.4185 
-4.0216 29.8402 10.4066 
0 28.3806 10.3896 
4.0216 29.8402 10.4066 
8.4182 32.8409 10.4185 
13.1202 35.5193 10.0888 
17.1376 37.1196 9.0374 
20.0193 37.3642 7.3242 
22.0353 36.9363 5.1548 
23.2272 36.5016 2.6601 
23.6179 36.3103 -0 
23.2272 36.5016 -2.6601 
22.0353 36.9363 -5.1548 
20.0193 37.3642 -7.3242 
17.1376 37.1196 -9.0374 
13.1202 35.5193 -10.0888 
8.4182 32.8409 -10.4185 
4.0216 29.8402 -10.4067 
0 28.3806 -10.3896 
-4.0216 29.8402 -10.4067 
-8.4182 32.8409 -10.4185 
-13.1202 35.5193 -10.0888 
-17.1376 37.1196 -9.0374 
-20.0193 37.3642 -7.3242 
-22.0353 36.9363 -5.1548 
-26.0409 40.8398 -0 
-25.5815 40.9555 -2.74 
-25.5815 40.9555 2.74 
-24.1135 41.1708 5.3397 
-21.5415 41.251 7.665 
-17.9141 40.607 9.6182 
-13.1414 38.7163 10.9182 
-8.0721 36.0463 11.429 
-3.7367 33.1805 11.4613 
0 31.7958 11.4554 
3.7367 33.1805 11.4613 
8.0721 36.0463 11.429 
13.1414 38.7163 10.9182 
17.9141 40.607 9.6182 
21.5415 41.251 7.665 
24.1135 41.1708 5.3397 
25.5815 40.9555 2.74 
26.0409 40.8398 -0 
25.5815 40.9555 -2.74 
24.1135 41.1708 -5.3398 
21.5415 41.251 -7.665 
17.9141 40.607 -9.6183 
13.1414 38.7163 -10.9182 
8.0721 36.0463 -11.429 
3.7367 33.1805 -11.4613 
0 31.7958 -11.4554 
-3.7367 33.1805 -11.4613 
-8.0721 36.0463 -11.429 
-13.1414 38.7163 -10.9182 
-17.9141 40.607 -9.6183 
-21.5415 41.251 -7.665 
-24.1135 41.1708 -5.3398 
-27.5002 45.7722 -0 
-26.9981 45.8214 -2.8142 
-26.9981 45.8214 2.8142 
-25.3526 45.8607 5.5004 
-22.4188 45.6867 7.9345 
-18.2973 44.7419 10.0162 
-13.0482 42.4899 11.4923 
-7.6731 39.5015 12.1051 
-3.4405 36.5975 12.1857 
0 35.2149 12.1694 
3.4405 36.5975 12.1857 
7.6731 39.5015 12.1051 
13.0482 42.4899 11.4923 
18.2973 44.7419 10.0162 
22.4188 45.6867 7.9345 
25.3526 45.8607 5.5004 
26.9981 45.8214 2.8142 
27.5002 45.7722 -0 
26.9981 45.8214 -2.8142 
25.3526 45.8607 -5.5004 
22.4188 45.6867 -7.9346 
18.2973 44.7419 -10.0162 
13.0482 42.4899 -11.4923 
7.6731 39.5015 -12.1051 
3.4405 36.5975 -12.1857 
0 35.2149 -12.1694 
-3.4405 36.5975 -12.1857 
-7.6731 39.5015 -12.1051 
-13.0482 42.4899 -11.4923 
-18.2973 44.7419 -10.0162 
-22.4188 45.6867 -7.9346 
-25.3526 45.8607 -5.5004 
-27.9801 50.9298 -0 
-27.4561 50.915 -2.8473 
-27.4561 50.915 2.8473 
-25.7177 50.7966 5.5689 
-22.5928 50.4156 8.0425 
-18.2087 49.2497 10.1654 
-12.7964 46.8106 11.7807 
-7.2986 43.435 12.4732 
-3.2011 40.3082 12.6352 
0 38.8549 12.6148 
3.2011 40.3082 12.6352 
7.2986 43.435 12.4732 
12.7964 46.8106 11.7807 
18.2087 49.2497 10.1654 
22.5928 50.4156 8.0425 
25.7178 50.7966 5.5689 
27.4561 50.915 2.8473 
27.9801 50.9298 -0 
27.4561 50.915 -2.8473 
25.7178 50.7966 -5.5689 
22.5928 50.4156 -8.0425 
18.2087 49.2497 -10.1655 
12.7964 46.8106 -11.7807 
7.2986 43.435 -12.4732 
3.2011 40.3082 -12.6353 
0 38.8549 -12.6148 
-3.2011 40.3082 -12.6353 
-7.2986 43.435 -12.4732 
-12.7964 46.8106 -11.7807 
-18.2087 49.2497 -10.1655 
-22.5928 50.4156 -8.0425 
-25.7177 50.7966 -5.5689 
-27.4378 56.0687 0 
-26.906 55.986 -2.8142 
-26.906 55.986 2.8142 
-25.1412 55.7035 5.5004 
-21.9741 55.123 7.9345 
-17.5758 53.835 10.0162 
-12.2945 51.4867 11.6595 
-7.0491 48.1379 12.5704 
-3.0693 44.6569 12.7815 
0 43.0467 12.7752 
3.0694 44.6569 12.7815 
7.0491 48.1379 12.5704 
12.2945 51.4867 11.6595 
17.5758 53.835 10.0162 
21.9741 55.123 7.9345 
25.1412 55.7035 5.5004 
26.906 55.986 2.8142 
27.4378 56.0687 0 
26.906 55.986 -2.8142 
25.1412 55.7035 -5.5004 
21.9741 55.123 -7.9346 
17.5758 53.835 -10.0162 
12.2945 51.4867 -11.6595 
7.0491 48.1379 -12.5704 
3.0693 44.6569 -12.7815 
0 43.0467 -12.7752 
-3.0693 44.6569 -12.7815 
-7.0491 48.1379 -12.5704 
-12.2945 51.4867 -11.6595 
-17.5758 53.835 -10.0162 
-21.9741 55.123 -7.9346 
-25.1412 55.7035 -5.5004 
25.652 60.8625 0 
25.1286 60.7012 2.74 
25.1286 60.7012 -2.74 
23.4434 60.2303 -5.3398 
20.4859 59.4331 -7.665 
16.4046 58.0885 -9.6188 
11.5043 55.9811 -11.1246 
6.7528 53.1022 -12.1688 
2.999 49.5949 -12.5499 
0 47.8181 -12.5731 
-2.999 49.5949 -12.5499 
-6.7528 53.1022 -12.1688 
-11.5043 55.9811 -11.1246 
-16.4046 58.0885 -9.6188 
-20.4858 59.4331 -7.665 
-23.4434 60.2303 -5.3398 
-25.1286 60.7012 -2.74 
-25.652 60.8625 0 
-25.1286 60.7012 2.74 
-23.4434 60.2303 5.3397 
-20.4858 59.4331 7.665 
-16.4046 58.0885 9.6188 
-11.5043 55.9811 11.1246 
-6.7528 53.1022 12.1688 
-2.999 49.5949 12.5499 
0 47.8181 12.5732 
2.999 49.5949 12.5499 
6.7528 53.1022 12.1688 
11.5043 55.9811 11.1246 
16.4046 58.0885 9.6188 
20.4859 59.4331 7.665 
23.4434 60.2303 5.3397 
22.4298 64.924 0 
21.937 64.6715 2.6601 
21.937 64.6715 -2.6601 
20.4747 63.9817 -5.1548 
18.073 62.9318 -7.3242 
14.7762 61.5448 -9.0471 
10.5649 59.8862 -10.2738 
6.312 57.5089 -11.1246 
2.8924 54.4494 -11.6434 
0 52.7419 -11.7598 
-2.8924 54.4494 -11.6434 
-6.312 57.5089 -11.1246 
-10.5649 59.8862 -10.2738 
-14.7762 61.5448 -9.0471 
-18.073 62.9318 -7.3242 
-20.4747 63.9817 -5.1548 
-21.937 64.6715 -2.6601 
-22.4298 64.924 0 
-21.937 64.6715 2.6601 
-20.4747 63.9817 5.1548 
-18.073 62.9318 7.3242 
-14.7762 61.5448 9.0471 
-10.5649 59.8862 10.2738 
-6.312 57.5089 11.1246 
-2.8924 54.4494 11.6434 
0 52.7419 11.7599 
2.8924 54.4494 11.6434 
6.312 57.5089 11.1246 
10.5649 59.8862 10.2738 
14.7761 61.5448 9.0471 
18.073 62.9318 7.3242 
20.4747 63.9817 5.1548 
3 0 1 2 
3 0 2 3 
3 1 4 5 
3 1 5 2 
3 4 6 7 
3 4 7 5 
3 6 8 9 
3 6 9 7 
3 8 10 11 
3 8 11 9 
3 12 13 14 
3 12 14 15 
3 13 16 17 
3 13 17 14 
3 16 18 19 
3 16 19 17 
3 18 20 21 
3 18 21 19 
3 20 22 23 
3 20 23 21 
3 22 24 25 
3 22 25 23 
3 24 26 27 
3 24 27 25 
3 26 28 29 
3 26 29 27 
3 30 31 32 
3 30 32 33 
3 31 34 35 
3 31 35 32 
3 34 0 3 
3 34 3 35 
3 36 37 2 
3 36 2 5 
3 37 38 3 
3 37 3 2 
3 38 39 35 
3 38 35 3 
3 39 40 32 
3 39 32 35 
3 40 41 33 
3 40 33 32 
3 42 43 27 
3 42 27 29 
3 43 44 25 
3 43 25 27 
3 44 45 23 
3 44 23 25 
3 45 46 21 
3 45 21 23 
3 46 47 19 
3 46 19 21 
3 47 48 17 
3 47 17 19 
3 48 49 14 
3 48 14 17 
3 49 50 15 
3 49 15 14 
3 51 52 9 
3 51 9 11 
3 52 53 7 
3 52 7 9 
3 53 36 5 
3 53 5 7 
3 38 37 54 
3 38 54 55 
3 37 36 56 
3 37 56 54 
3 36 53 57 
3 36 57 56 
3 53 52 58 
3 53 58 57 
3 52 51 59 
3 52 59 58 
3 50 49 60 
3 50 60 61 
3 49 48 62 
3 49 62 60 
3 48 47 63 
3 48 63 62 
3 47 46 64 
3 47 64 63 
3 46 45 65 
3 46 65 64 
3 45 44 66 
3 45 66 65 
3 44 43 67 
3 44 67 66 
3 43 42 68 
3 43 68 67 
3 41 40 69 
3 41 69 70 
3 40 39 71 
3 40 71 69 
3 39 38 55 
3 39 55 71 
3 72 73 54 
3 72 54 56 
3 73 74 55 
3 73 55 54 
3 74 75 71 
3 74 71 55 
3 75 76 69 
3 75 69 71 
3 76 77 70 
3 76 70 69 
3 78 79 67 
3 78 67 68 
3 79 80 66 
3 79 66 67 
3 80 81 65 
3 80 65 66 
3 81 82 64 
3 81 64 65 
3 82 83 63 
3 82 63 64 
3 83 84 62 
3 83 62 63 
3 84 85 60 
3 84 60 62 
3 85 86 61 
3 85 61 60 
3 87 88 58 
3 87 58 59 
3 88 89 57 
3 88 57 58 
3 89 72 56 
3 89 56 57 
3 73 72 90 
3 73 90 91 
3 72 89 92 
3 72 92 90 
3 89 88 93 
3 89 93 92 
3 88 87 94 
3 88 94 93 
3 86 85 95 
3 86 95 96 
3 85 84 97 
3 85 97 95 
3 84 83 98 
3 84 98 97 
3 83 82 99 
3 83 99 98 
3 82 81 100 
3 82 100 99 
3 81 80 101 
3 81 101 100 
3 80 79 102 
3 80 102 101 
3 79 78 103 
3 79 103 102 
3 77 76 104 
3 77 104 105 
3 76 75 106 
3 76 106 104 
3 75 74 107 
3 75 107 106 
3 74 73 91 
3 74 91 107 
3 108 109 91 
3 108 91 90 
3 109 110 107 
3 109 107 91 
3 110 111 106 
3 110 106 107 
3 111 112 104 
3 111 104 106 
3 112 113 105 
3 112 105 104 
3 114 115 102 
3 114 102 103 
3 115 116 101 
3 115 101 102 
3 116 117 100 
3 116 100 101 
3 117 118 99 
3 117 99 100 
3 118 119 98 
3 118 98 99 
3 119 120 97 
3 119 97 98 
3 120 121 95 
3 120 95 97 
3 121 122 96 
3 121 96 95 
3 123 124 93 
3 123 93 94 
3 124 125 92 
3 124 92 93 
3 125 108 90 
3 125 90 92 
3 110 109 126 
3 110 126 127 
3 109 108 128 
3 109 128 126 
3 108 125 129 
3 108 129 128 
3 125 124 130 
3 125 130 129 
3 124 123 131 
3 124 131 130 
3 122 121 132 
3 122 132 133 
3 121 120 134 
3 121 134 132 
3 120 119 135 
3 120 135 134 
3 119 118 136 
3 119 136 135 
3 118 117 137 
3 118 137 136 
3 117 116 138 
3 117 138 137 
3 116 115 139 
3 116 139 138 
3 115 114 140 
3 115 140 139 
3 113 112 141 
3 113 141 142 
3 112 111 143 
3 112 143 141 
3 111 110 127 
3 111 127 143 
3 144 145 126 
3 144 126 128 
3 145 146 127 
3 145 127 126 
3 146 147 143 
3 146 143 127 
3 147 148 141 
3 147 141 143 
3 148 149 142 
3 148 142 141 
3 150 151 139 
3 150 139 140 
3 151 152 138 
3 151 138 139 
3 152 153 137 
3 152 137 138 
3 153 154 136 
3 153 136 137 
3 154 155 135 
3 154 135 136 
3 155 156 134 
3 155 134 135 
3 156 157 132 
3 156 132 134 
3 157 158 133 
3 157 133 132 
3 159 160 130 
3 159 130 131 
3 160 161 129 
3 160 129 130 
3 161 144 128 
3 161 128 129 
3 70 77 162 
3 70 162 163 
3 77 105 164 
3 77 164 162 
3 105 113 165 
3 105 165 164 
3 113 142 166 
3 113 166 165 
3 142 149 167 
3 142 167 166 
3 149 148 168 
3 149 168 167 
3 148 147 169 
3 148 169 168 
3 147 146 170 
3 147 170 169 
3 146 145 171 
3 146 171 170 
3 145 144 172 
3 145 172 171 
3 144 161 173 
3 144 173 172 
3 161 160 174 
3 161 174 173 
3 160 159 175 
3 160 175 174 
3 159 131 176 
3 159 176 175 
3 131 123 177 
3 131 177 176 
3 123 94 178 
3 123 178 177 
3 94 87 179 
3 94 179 178 
3 87 59 180 
3 87 180 179 
3 59 51 181 
3 59 181 180 
3 51 11 182 
3 51 182 181 
3 11 10 183 
3 11 183 182 
3 10 8 184 
3 10 184 183 
3 8 6 185 
3 8 185 184 
3 6 4 186 
3 6 186 185 
3 4 1 187 
3 4 187 186 
3 1 0 188 
3 1 188 187 
3 0 34 189 
3 0 189 188 
3 34 31 190 
3 34 190 189 
3 31 30 191 
3 31 191 190 
3 30 33 192 
3 30 192 191 
3 33 41 193 
3 33 193 192 
3 41 70 163 
3 41 163 193 
3 163 162 194 
3 163 194 195 
3 162 164 196 
3 162 196 194 
3 164 165 197 
3 164 197 196 
3 165 166 198 
3 165 198 197 
3 166 167 199 
3 166 199 198 
3 167 168 200 
3 167 200 199 
3 168 169 201 
3 168 201 200 
3 169 170 202 
3 169 202 201 
3 170 171 203 
3 170 203 202 
3 171 172 204 
3 171 204 203 
3 172 173 205 
3 172 205 204 
3 173 174 206 
3 173 206 205 
3 174 175 207 
3 174 207 206 
3 175 176 208 
3 175 208 207 
3 176 177 209 
3 176 209 208 
3 177 178 210 
3 177 210 209 
3 178 179 211 
3 178 211 210 
3 179 180 212 
3 179 212 211 
3 180 181 213 
3 180 213 212 
3 181 182 214 
3 181 214 213 
3 182 183 215 
3 182 215 214 
3 183 184 216 
3 183 216 215 
3 184 185 217 
3 184 217 216 
3 185 186 218 
3 185 218 217 
3 186 187 219 
3 186 219 218 
3 187 188 220 
3 187 220 219 
3 188 189 221 
3 188 221 220 
3 189 190 222 
3 189 222 221 
3 190 191 223 
3 190 223 222 
3 191 192 224 
3 191 224 223 
3 192 193 225 
3 192 225 224 
3 193 163 195 
3 193 195 225 
3 195 194 226 
3 195 226 227 
3 194 196 228 
3 194 228 226 
3 196 197 229 
3 196 229 228 
3 197 198 230 
3 197 230 229 
3 198 199 231 
3 198 231 230 
3 199 200 232 
3 199 232 231 
3 200 201 233 
3 200 233 232 
3 201 202 234 
3 201 234 233 
3 202 203 235 
3 202 235 234 
3 203 204 236 
3 203 236 235 
3 204 205 237 
3 204 237 236 
3 205 206 238 
3 205 238 237 
3 206 207 239 
3 206 239 238 
3 207 208 240 
3 207 240 239 
3 208 209 241 
3 208 241 240 
3 209 210 242 
3 209 242 241 
3 210 211 243 
3 210 243 242 
3 211 212 244 
3 211 244 243 
3 212 213 245 
3 212 245 244 
3 213 214 246 
3 213 246 245 
3 214 215 247 
3 214 247 246 
3 215 216 248 
3 215 248 247 
3 216 217 249 
3 216 249 248 
3 217 218 250 
3 217 250 249 
3 218 219 251 
3 218 251 250 
3 219 220 252 
3 219 252 251 
3 220 221 253 
3 220 253 252 
3 221 222 254 
3 221 254 253 
3 222 223 255 
3 222 255 254 
3 223 224 256 
3 223 256 255 
3 224 225 257 
3 224 257 256 
3 225 195 227 
3 225 227 257 
3 227 226 258 
3 227 258 259 
3 226 228 260 
3 226 260 258 
3 228 229 261 
3 228 261 260 
3 229 230 262 
3 229 262 261 
3 230 231 263 
3 230 263 262 
3 231 232 264 
3 231 264 263 
3 232 233 265 
3 232 265 264 
3 233 234 266 
3 233 266 265 
3 234 235 267 
3 234 267 266 
3 235 236 268 
3 235 268 267 
3 236 237 269 
3 236 269 268 
3 237 238 270 
3 237 270 269 
3 238 239 271 
3 238 271 270 
3 239 240 272 
3 239 272 271 
3 240 241 273 
3 240 273 272 
3 241 242 274 
3 241 274 273 
3 242 243 275 
3 242 275 274 
3 243 244 276 
3 243 276 275 
3 244 245 277 
3 244 277 276 
3 245 246 278 
3 245 278 277 
3 246 247 279 
3 246 279 278 
3 247 248 280 
3 247 280 279 
3 248 249 281 
3 248 281 280 
3 249 250 282 
3 249 282 281 
3 250 251 283 
3 250 283 282 
3 251 252 284 
3 251 284 283 
3 252 253 285 
3 252 285 284 
3 253 254 286 
3 253 286 285 
3 254 255 287 
3 254 287 286 
3 255 256 288 
3 255 288 287 
3 256 257 289 
3 256 289 288 
3 257 227 259 
3 257 259 289 
3 259 258 290 
3 259 290 291 
3 258 260 292 
3 258 292 290 
3 260 261 293 
3 260 293 292 
3 261 262 294 
3 261 294 293 
3 262 263 295 
3 262 295 294 
3 263 264 296 
3 263 296 295 
3 264 265 297 
3 264 297 296 
3 265 266 298 
3 265 298 297 
3 266 267 299 
3 266 299 298 
3 267 268 300 
3 267 300 299 
3 268 269 301 
3 268 301 300 
3 269 270 302 
3 269 302 301 
3 270 271 303 
3 270 303 302 
3 271 272 304 
3 271 304 303 
3 272 273 305 
3 272 305 304 
3 273 274 306 
3 273 306 305 
3 274 275 307 
3 274 307 306 
3 275 276 308 
3 275 308 307 
3 276 277 309 
3 276 309 308 
3 277 278 310 
3 277 310 309 
3 278 279 311 
3 278 311 310 
3 279 280 312 
3 279 312 311 
3 280 281 313 
3 280 313 312 
3 281 282 314 
3 281 314 313 
3 282 283 315 
3 282 315 314 
3 283 284 316 
3 283 316 315 
3 284 285 317 
3 284 317 316 
3 285 286 318 
3 285 318 317 
3 286 287 319 
3 286 319 318 
3 287 288 320 
3 287 320 319 
3 288 289 321 
3 288 321 320 
3 289 259 291 
3 289 291 321 
3 306 307 322 
3 306 322 323 
3 307 308 324 
3 307 324 322 
3 308 309 325 
3 308 325 324 
3 309 310 326 
3 309 326 325 
3 310 311 327 
3 310 327 326 
3 311 312 328 
3 311 328 327 
3 312 313 329 
3 312 329 328 
3 313 314 330 
3 313 330 329 
3 314 315 331 
3 314 331 330 
3 315 316 332 
3 315 332 331 
3 316 317 333 
3 316 333 332 
3 317 318 334 
3 317 334 333 
3 318 319 335 
3 318 335 334 
3 319 320 336 
3 319 336 335 
3 320 321 337 
3 320 337 336 
3 321 291 338 
3 321 338 337 
3 291 290 339 
3 291 339 338 
3 290 292 340 
3 290 340 339 
3 292 293 341 
3 292 341 340 
3 293 294 342 
3 293 342 341 
3 294 295 343 
3 294 343 342 
3 295 296 344 
3 295 344 343 
3 296 297 345 
3 296 345 344 
3 297 298 346 
3 297 346 345 
3 298 299 347 
3 298 347 346 
3 299 300 348 
3 299 348 347 
3 300 301 349 
3 300 349 348 
3 301 302 350 
3 301 350 349 
3 302 303 351 
3 302 351 350 
3 303 304 352 
3 303 352 351 
3 304 305 353 
3 304 353 352 
3 305 306 323 
3 305 323 353 
3 323 322 354 
3 323 354 355 
3 322 324 356 
3 322 356 354 
3 324 325 357 
3 324 357 356 
3 325 326 358 
3 325 358 357 
3 326 327 359 
3 326 359 358 
3 327 328 360 
3 327 360 359 
3 328 329 361 
3 328 361 360 
3 329 330 362 
3 329 362 361 
3 330 331 363 
3 330 363 362 
3 331 332 364 
3 331 364 363 
3 332 333 365 
3 332 365 364 
3 333 334 366 
3 333 366 365 
3 334 335 367 
3 334 367 366 
3 335 336 368 
3 335 368 367 
3 336 337 369 
3 336 369 368 
3 337 338 370 
3 337 370 369 
3 338 339 371 
3 338 371 370 
3 339 340 372 
3 339 372 371 
3 340 341 373 
3 340 373 372 
3 341 342 374 
3 341 374 373 
3 342 343 375 
3 342 375 374 
3 343 344 376 
3 343 376 375 
3 344 345 377 
3 344 377 376 
3 345 346 378 
3 345 378 377 
3 346 347 379 
3 346 379 378 
3 347 348 380 
3 347 380 379 
3 348 349 381 
3 348 381 380 
3 349 350 382 
3 349 382 381 
3 350 351 383 
3 350 383 382 
3 351 352 384 
3 351 384 383 
3 352 353 385 
3 352 385 384 
3 353 323 355 
3 353 355 385 
3 355 354 86 
3 355 86 96 
3 354 356 61 
3 354 61 86 
3 356 357 50 
3 356 50 61 
3 357 358 15 
3 357 15 50 
3 358 359 12 
3 358 12 15 
3 359 360 13 
3 359 13 12 
3 360 361 16 
3 360 16 13 
3 361 362 18 
3 361 18 16 
3 362 363 20 
3 362 20 18 
3 363 364 22 
3 363 22 20 
3 364 365 24 
3 364 24 22 
3 365 366 26 
3 365 26 24 
3 366 367 28 
3 366 28 26 
3 367 368 29 
3 367 29 28 
3 368 369 42 
3 368 42 29 
3 369 370 68 
3 369 68 42 
3 370 371 78 
3 370 78 68 
3 371 372 103 
3 371 103 78 
3 372 373 114 
3 372 114 103 
3 373 374 140 
3 373 140 114 
3 374 375 150 
3 374 150 140 
3 375 376 151 
3 375 151 150 
3 376 377 152 
3 376 152 151 
3 377 378 153 
3 377 153 152 
3 378 379 154 
3 378 154 153 
3 379 380 155 
3 379 155 154 
3 380 381 156 
3 380 156 155 
3 381 382 157 
3 381 157 156 
3 382 383 158 
3 382 158 157 
3 383 384 133 
3 383 133 158 
3 384 385 122 
3 384 122 133 
3 385 355 96 
3 385 96 122 
